<svg width="10" height="10" viewBox="0 0 10 10" fill="none" xmlns="http://www.w3.org/2000/svg">
<path d="M9.81712 0.182864C9.57327 -0.0609546 9.1822 -0.0609546 8.93835 0.182864L5 4.12076L1.06165 0.182864C0.817806 -0.0609546 0.426731 -0.0609546 0.182885 0.182864C-0.0609616 0.426682 -0.0609616 0.817712 0.182885 1.06153L4.12123 4.99943L0.182885 8.93732C-0.0609616 9.18114 -0.0609616 9.57217 0.182885 9.81599C0.302507 9.9356 0.463538 10 0.619968 10C0.776398 10 0.937428 9.9402 1.05705 9.81599L4.9954 5.87809L8.93375 9.81599C9.05337 9.9356 9.2144 10 9.37083 10C9.53186 10 9.68829 9.9402 9.80791 9.81599C10.0518 9.57217 10.0518 9.18114 9.80791 8.93732L5.87877 4.99943L9.81712 1.06153C10.061 0.817712 10.061 0.426682 9.81712 0.182864Z" fill="white"/>
</svg>
