<svg  viewBox="0 0 1440 238" fill="none" xmlns="http://www.w3.org/2000/svg">
<path d="M1439 242.4C1439.4 242.2 1440 242.1 1440.1 241.9C1440.3 241.4 1440.2 240.8 1440.2 240.2C1440.1 161.8 1440.2 60.4 1440.2 -18C960.2 -17.3 480.1 -18.7 0.100098 -18C0.100098 24.9 0.100195 93 0.100195 135.9C62.4002 116.2 126.6 103 192.6 95.8C226.3 92.1 260.1 89.9 294.1 89.1C339.1 88 384.1 89.2 428.9 92.1C466.1 94.6 503.3 97.8 540.1 102.7C583 108.4 625.8 114.5 668.4 121.4C735.8 132.3 802.6 145.5 869.4 158.7C968.3 178.3 1067 198.6 1166.9 214.2C1200.8 219.5 1234.9 224.3 1269 228.6C1294.8 231.9 1320.8 234.4 1346.7 236.6C1371.3 238.7 1396.1 239.9 1420.7 241.4C1426.9 241.9 1433 242.1 1439 242.4Z" fill="#5B9600"/>
<path d="M1437.8 190.4C1438.2 190.3 1438.8 190.2 1438.9 190C1439.1 189.6 1439 189.2 1439 188.8C1439 134.3 1438.9 79.9 1438.9 25.4C958.8 26.1 478.9 26.8 -1 27.5C-1 57.3 -0.9 87.2 -0.9 117C61.4 103.3 125.6 94.1 191.6 89C225.3 86.4 259.1 84.9 293.1 84.3C338.1 83.5 383 84.3 427.9 86.3C465.1 88 502.3 90.2 539.1 93.6C581.9 97.6 624.7 101.8 667.4 106.5C734.8 114 801.6 123.2 868.4 132.3C967.3 145.9 1066 159.9 1165.8 170.8C1199.7 174.5 1233.8 177.8 1267.9 180.8C1293.7 183.1 1319.6 184.8 1345.6 186.3C1370.2 187.7 1394.9 188.6 1419.6 189.6C1425.6 190 1431.7 190.2 1437.8 190.4Z" fill="#74BD00"/>
</svg>
