<svg viewBox="0 0 320 118" fill="none" xmlns="http://www.w3.org/2000/svg">
<path d="M320.727 118C320.816 117.931 320.95 117.896 320.972 117.827C321.017 117.655 320.994 117.448 320.994 117.241C320.972 90.1809 320.727 27.1295 320.727 0.0697407C213.736 0.311346 106.991 -0.171859 2.1762e-05 0.069746C2.1762e-05 14.8767 0 66.4346 0 81.2415C13.8865 74.4421 28.1965 69.8861 42.9077 67.401C50.4194 66.1239 57.9533 65.3646 65.5318 65.0885C75.5622 64.7088 85.5926 65.123 95.5784 66.1239C103.87 66.9868 112.162 68.0913 120.365 69.7825C129.927 71.7499 139.467 73.8553 148.962 76.2368C163.986 79.999 178.875 84.555 193.765 89.1109C215.809 95.8759 237.809 102.882 260.077 108.267C267.633 110.096 275.234 111.753 282.834 113.237C288.585 114.376 294.38 115.239 300.153 115.998C305.637 116.723 311.165 117.137 316.648 117.655C318.03 117.827 319.39 117.896 320.727 118Z" fill="#5B9600"/>
<path d="M319.728 106C319.817 105.96 319.95 105.92 319.972 105.84C320.017 105.68 319.994 105.521 319.994 105.361C319.994 83.5859 319.994 57.8556 319.994 36.0807C213.3 36.3604 106.65 35.8011 0.000180312 36.0807C0.000180312 47.987 0 64.7676 0 76.6739C13.8452 71.2002 28.1126 67.5244 42.78 65.4868C50.2693 64.448 57.7808 63.8487 65.3367 63.609C75.3372 63.2893 85.3155 63.609 95.2938 64.408C103.561 65.0873 111.828 65.9662 120.006 67.3247C129.518 68.9228 139.029 70.6009 148.519 72.4787C163.497 75.4753 178.343 79.151 193.188 82.7868C215.167 88.2205 237.101 93.8141 259.28 98.1691C266.814 99.6473 274.392 100.966 281.97 102.164C287.704 103.083 293.46 103.763 299.238 104.362C304.705 104.921 310.194 105.281 315.683 105.68C317.016 105.84 318.372 105.92 319.728 106Z" fill="#74BD00"/>
</svg>
