<svg width="20" height="24" viewBox="0 0 20 24" fill="none" xmlns="http://www.w3.org/2000/svg">
<path d="M18.6295 20.0269C18.6295 19.99 18.6233 19.9533 18.62 19.9164L17.3343 5.47563C17.3066 5.1538 17.0347 4.91012 16.7166 4.91012C15.2437 4.91012 14.1007 3.62613 13.25 2.42374C12.4434 1.28354 11.1122 0.537842 9.60872 0.537842C8.10519 0.537842 6.77406 1.28354 5.96742 2.42374C5.11679 3.62613 3.97371 4.91012 2.50084 4.91012C2.17817 4.91012 1.91082 5.1538 1.88317 5.47563L0.5925 19.9717C0.5925 19.9901 0.587891 20.0085 0.587891 20.0269C0.587891 21.6774 2.10442 23.0199 3.97128 23.0199H15.2462C17.113 23.0199 18.6295 21.6774 18.6295 20.0269ZM9.60872 1.77918C10.2199 1.77918 10.7916 1.95026 11.2783 2.24694C12.7816 3.16348 11.3694 4.91012 9.60872 4.91012C7.84801 4.91012 6.43582 3.16348 7.93916 2.24694C8.42579 1.95026 8.9975 1.77918 9.60872 1.77918ZM15.2462 21.7786H3.97128C2.80046 21.7786 1.8509 21.0062 1.83246 20.0545L2.97967 7.1477C3.02956 6.58638 3.49982 6.15606 4.06336 6.15606C4.66422 6.15606 5.15131 6.64316 5.15131 7.24402V8.04107C5.15131 8.38588 5.42789 8.66174 5.7736 8.66174C6.11931 8.66174 6.39588 8.38588 6.39588 8.04107C6.39588 7.00001 7.23983 6.15606 8.28089 6.15606H10.9319C11.973 6.15606 12.8169 7.00001 12.8169 8.04107C12.8169 8.38588 13.0935 8.66174 13.4392 8.66174C13.7849 8.66174 14.0615 8.38588 14.0615 8.04107V7.24419C14.0615 6.64324 14.5487 6.15606 15.1496 6.15606C15.7131 6.15606 16.1834 6.58624 16.2335 7.1475L17.385 20.0545C17.3665 21.0062 16.4124 21.7786 15.2462 21.7786Z" fill="white" stroke="white"/>
</svg>
